<svg width="178" height="20" viewBox="0 0 178 20" fill="none" xmlns="http://www.w3.org/2000/svg">
<path d="M61.4742 7.97434H55.0318L54.3488 7.99857C53.4717 7.99857 52.9261 7.67157 52.6351 6.96711C52.5664 6.80361 52.5321 6.62396 52.5321 6.43018C52.5321 6.16374 52.5947 5.90941 52.72 5.66517C53.0332 5.10806 53.5324 4.83556 54.2457 4.83556H65.6654C66.2818 4.83556 66.7911 4.66197 67.177 4.32084C67.6843 3.88686 67.9409 3.39636 67.9409 2.86145C67.9409 2.37903 67.757 1.92285 67.3912 1.50905C67.0214 1.0892 66.4859 0.848999 65.7685 0.79248H54.2962C53.0959 0.79248 51.9501 1.07911 50.877 1.6564C49.1209 2.71814 48.1489 4.23202 47.9832 6.18796V6.26063C47.9832 8.19032 48.838 9.76678 50.5355 10.9557C51.3256 11.4563 52.2067 11.7954 53.1848 11.9649C53.4192 11.9871 54.5589 12.0134 61.7026 12.0134C61.9532 12.0134 62.1997 12.0558 62.418 12.1305C62.8302 12.302 63.1152 12.5927 63.2809 13.0045C63.3536 13.2063 63.39 13.4001 63.39 13.5818C63.39 13.8401 63.293 14.1449 63.103 14.484C62.8403 14.9322 62.3331 15.1502 61.549 15.1502H50.4627C49.7312 15.1502 49.1391 15.3338 48.7005 15.6951C48.2459 16.0706 48.0034 16.547 47.9832 17.1222C47.9832 17.6269 48.1873 18.0992 48.5914 18.5312C49.0017 18.9692 49.6039 19.1912 50.3879 19.1912H61.2944C61.6642 19.1912 62.0482 19.1831 62.4705 19.165C64.4307 18.9127 65.9645 18.0285 67.0416 16.5167C67.6398 15.5559 67.9429 14.5769 67.9429 13.606C67.9429 12.6876 67.6762 11.753 67.1407 10.8083C65.912 8.92506 64.0063 7.97233 61.4763 7.97233L61.4742 7.97434Z" fill="#031B33"/>
<path d="M141.661 1.1902L141.643 1.17809C140.893 0.734013 140.077 0.673458 139.299 1.01459C138.555 1.33351 138.118 1.90071 138.036 2.65967V9.78098C138.034 11.0345 137.678 12.1225 136.977 13.0126C135.982 14.2722 134.697 14.9665 133.064 15.1321L132.591 15.1563C131.142 15.1563 129.853 14.6617 128.768 13.6989C127.695 12.6553 127.155 11.4341 127.123 9.97476V2.91199C127.123 2.15504 126.814 1.17809 125.341 0.828883L124.902 0.796587C124.354 0.796587 123.839 0.958068 123.37 1.27497C122.863 1.61812 122.596 2.11669 122.576 2.76867V9.87585C122.576 11.7268 123.142 13.4829 124.266 15.1099C125.678 16.983 127.602 18.2567 129.997 18.9006C130.876 19.0964 131.749 19.1973 132.593 19.1973C134.214 19.1973 135.805 18.832 137.328 18.1073C139.484 17.0052 141.036 15.3783 141.942 13.2629C142.368 12.2052 142.584 11.1071 142.584 9.99898V2.93621C142.584 2.19541 142.273 1.61005 141.663 1.19221L141.661 1.1902Z" fill="#031B33"/>
<path d="M117.314 2.87166C115.814 1.50917 114.014 0.818835 111.963 0.818835C110.677 0.818835 109.457 1.11354 108.337 1.69285C107.794 1.96131 107.293 2.30244 106.846 2.70412L106.797 2.65972C106.616 2.49016 106.405 2.32061 106.163 2.14701C104.825 1.2508 103.316 0.796631 101.675 0.796631C99.4073 0.796631 97.4855 1.63028 95.9618 3.28344C94.8645 4.53693 94.2986 5.99833 94.2825 7.62727V17.0315C94.2825 17.2919 94.3229 17.5462 94.4098 17.8046C94.7695 18.715 95.5031 19.1954 96.5317 19.1954C96.8429 19.1954 97.1581 19.1409 97.4916 19.0238C98.3484 18.6524 98.8112 18.0004 98.8314 17.1284V7.8917C98.8314 7.6192 98.8475 7.36083 98.8738 7.15696C99.1527 5.96402 99.8721 5.22726 101.074 4.9043C101.275 4.87604 101.477 4.86191 101.675 4.86191C102.618 4.86191 103.38 5.24139 103.997 6.01448C104.379 6.52517 104.571 7.14888 104.571 7.86546V17.2596C104.591 17.8268 104.839 18.2991 105.306 18.6665C105.753 19.0177 106.28 19.1954 106.87 19.1954C107.551 19.1954 108.101 18.9733 108.501 18.5313C108.889 18.1054 109.097 17.6371 109.117 17.1264V7.76857C109.117 6.99952 109.336 6.36772 109.77 5.85098C110.393 5.18487 111.092 4.85989 111.91 4.85989C112.207 4.85989 112.508 4.89623 112.773 4.96082C114.176 5.45334 114.857 6.43635 114.857 7.96235V16.9124C114.857 17.5765 115.063 18.1276 115.467 18.5494C115.875 18.9774 116.445 19.1954 117.156 19.1954C117.734 19.1954 118.252 19.0076 118.692 18.6342C119.145 18.2507 119.385 17.7481 119.405 17.1264V7.60103C119.405 5.85502 118.704 4.26847 117.312 2.86964L117.314 2.87166Z" fill="#031B33"/>
<path d="M88.0704 3.37427L88.0643 3.37023C86.1041 1.66257 83.7701 0.796631 81.1248 0.796631C79.0433 0.796631 77.0851 1.37796 75.2987 2.53053C73.6356 3.65081 72.4332 5.11221 71.7219 6.88244C71.3318 7.90583 71.1338 8.95343 71.1338 9.99701C71.1338 10.8266 71.2591 11.6643 71.5097 12.4919C72.0775 14.3065 73.1627 15.8527 74.743 17.0921C76.5961 18.4889 78.7442 19.1954 81.1248 19.1954C82.9759 19.1954 84.7279 18.7452 86.3385 17.8571C88.0704 16.8539 89.388 15.4773 90.259 13.7575C90.8268 12.5524 91.1138 11.2949 91.1138 10.0212C91.1138 7.44359 90.0892 5.20708 88.0684 3.37629L88.0704 3.37427ZM81.1248 15.1543C80.0133 15.1543 78.9605 14.8414 78.0026 14.2339C77.0872 13.6061 76.4183 12.7886 76.0222 11.8116C75.7979 11.2162 75.6847 10.6046 75.6847 9.99499C75.6847 8.35394 76.3475 7.0419 77.7096 5.9842C78.7059 5.22121 79.8638 4.83567 81.1511 4.83567C82.1312 4.83567 83.0506 5.07789 83.8852 5.55628C84.8492 6.10935 85.5807 6.88042 86.0617 7.84931C86.3971 8.53157 86.5669 9.24612 86.5669 9.97076C86.5669 11.4624 86.0071 12.6998 84.8552 13.7575C83.7943 14.684 82.5394 15.1523 81.1248 15.1523V15.1543Z" fill="#031B33"/>
<path d="M159.212 7.97434H152.769L152.086 7.99857C151.209 7.99857 150.664 7.67157 150.373 6.96711C150.304 6.80361 150.27 6.62194 150.27 6.43018C150.27 6.16374 150.332 5.90941 150.458 5.66517C150.771 5.10806 151.27 4.83556 151.983 4.83556H163.403C164.019 4.83556 164.529 4.66197 164.913 4.32084C165.42 3.88686 165.677 3.39636 165.677 2.86145C165.677 2.37903 165.493 1.92285 165.127 1.50905C164.759 1.0892 164.222 0.848999 163.504 0.79248H152.032C150.831 0.79248 149.686 1.07911 148.613 1.6564C146.856 2.71814 145.884 4.23202 145.719 6.18796V6.26063C145.719 8.19032 146.574 9.76678 148.271 10.9557C149.061 11.4583 149.942 11.7954 150.92 11.9649C151.157 11.9871 152.295 12.0134 159.44 12.0134C159.691 12.0134 159.937 12.0558 160.156 12.1305C160.568 12.302 160.851 12.5927 161.018 13.0045C161.091 13.2063 161.128 13.4001 161.128 13.5818C161.128 13.8401 161.031 14.1449 160.841 14.484C160.58 14.9322 160.071 15.1502 159.287 15.1502H148.2C147.469 15.1502 146.877 15.3338 146.438 15.6951C145.983 16.0706 145.741 16.547 145.721 17.1222C145.721 17.6248 145.925 18.0992 146.329 18.5312C146.739 18.9692 147.344 19.1912 148.124 19.1912H159.03C159.4 19.1912 159.786 19.1831 160.206 19.165C162.166 18.9127 163.7 18.0285 164.777 16.5167C165.375 15.5559 165.679 14.5769 165.679 13.606C165.679 12.6876 165.412 11.753 164.876 10.8083C163.648 8.92506 161.742 7.97233 159.212 7.97233V7.97434Z" fill="#031B33"/>
<path d="M175.288 19.1913C176.622 19.1913 177.704 18.1105 177.704 16.7772C177.704 15.4439 176.622 14.363 175.288 14.363C173.953 14.363 172.871 15.4439 172.871 16.7772C172.871 18.1105 173.953 19.1913 175.288 19.1913Z" fill="#205DF5"/>
<path d="M36.2158 3.04921V12.4777C36.2158 15.4065 34.3405 17.9014 31.7255 18.8219C31.0243 19.0701 30.2685 19.2054 29.4804 19.2054C28.6922 19.2054 27.9364 19.0701 27.2352 18.8219C25.9924 18.3838 24.9133 17.5865 24.1272 16.5591C23.2602 15.4267 22.7449 14.0138 22.7449 12.4777V9.7769C22.7449 7.30019 20.7342 5.29177 18.2546 5.29177C15.7751 5.29177 13.7643 7.30019 13.7643 9.7769V12.4777C13.7643 14.0138 13.249 15.4267 12.3821 16.5591C11.594 17.5865 10.5169 18.3838 9.27404 18.8219C8.57281 19.0701 7.81702 19.2054 7.02889 19.2054C6.24077 19.2054 5.48498 19.0701 4.78375 18.8219C2.16879 17.9014 0.293457 15.4065 0.293457 12.4777V3.04921C0.293457 1.80984 1.29781 0.806641 2.5386 0.806641C3.77939 0.806641 4.78375 1.80984 4.78375 3.04921V12.4777C4.78375 13.717 5.7881 14.7202 7.02889 14.7202C8.26969 14.7202 9.27404 13.717 9.27404 12.4777V9.7769C9.27404 8.58396 9.50644 7.44552 9.93283 6.40599C10.6826 4.54694 12.0426 3.00076 13.7623 2.01169C15.086 1.24668 16.6157 0.806641 18.2526 0.806641C19.8895 0.806641 21.4193 1.24466 22.7429 2.01169C24.4626 3.00278 25.8247 4.54694 26.5724 6.40599C27.0008 7.44351 27.2312 8.58195 27.2312 9.7769V12.4777C27.2312 13.717 28.2355 14.7202 29.4763 14.7202C30.7171 14.7202 31.7215 13.717 31.7215 12.4777V3.04921C31.7215 1.80984 32.7258 0.806641 33.9666 0.806641C35.2074 0.806641 36.2117 1.80984 36.2117 3.04921H36.2158Z" fill="#031B33"/>
<path d="M18.2869 7.20728C16.9451 7.20728 15.8518 8.29727 15.8518 9.63958V17.9377H15.87C18.5456 17.9377 20.722 15.7637 20.722 13.0912V9.6416C20.722 8.30131 19.6308 7.20929 18.2869 7.20929V7.20728Z" fill="#205DF5"/>
</svg>
